<svg width="512" height="512" viewBox="0 0 512 512" fill="none" xmlns="http://www.w3.org/2000/svg">
  <defs>
    <linearGradient id="gradient1" x1="0%" y1="0%" x2="100%" y2="100%">
      <stop offset="0%" style="stop-color:#06b6d4;stop-opacity:1" />
      <stop offset="50%" style="stop-color:#3b82f6;stop-opacity:1" />
      <stop offset="100%" style="stop-color:#a855f7;stop-opacity:1" />
    </linearGradient>
    <linearGradient id="gradient2" x1="100%" y1="0%" x2="0%" y2="100%">
      <stop offset="0%" style="stop-color:#a855f7;stop-opacity:1" />
      <stop offset="50%" style="stop-color:#3b82f6;stop-opacity:1" />
      <stop offset="100%" style="stop-color:#06b6d4;stop-opacity:1" />
    </linearGradient>
    <filter id="glow">
      <feGaussianBlur stdDeviation="4" result="coloredBlur"/>
      <feMerge>
        <feMergeNode in="coloredBlur"/>
        <feMergeNode in="SourceGraphic"/>
      </feMerge>
    </filter>
  </defs>
  
  <!-- Main X shape -->
  <g filter="url(#glow)">
    <!-- Top-left to bottom-right arm -->
    <path d="M 140 90 L 220 170 L 256 206 L 292 170 L 372 90 L 410 90 L 292 208 L 256 244 L 220 208 L 102 90 Z" 
          fill="url(#gradient1)" opacity="0.9"/>
    
    <!-- Bottom-left to top-right arm -->
    <path d="M 140 422 L 220 342 L 256 306 L 292 342 L 372 422 L 410 422 L 292 304 L 256 268 L 220 304 L 102 422 Z" 
          fill="url(#gradient2)" opacity="0.9"/>
    
    <!-- Center glow -->
    <circle cx="256" cy="256" r="30" fill="#a855f7" opacity="0.6"/>
    <circle cx="256" cy="256" r="20" fill="#06b6d4" opacity="0.8"/>
  </g>
  
  <!-- Circuit patterns -->
  <g opacity="0.6" stroke="url(#gradient1)" stroke-width="2" fill="none">
    <!-- Top-left circuits -->
    <path d="M 150 110 L 170 110 L 170 130"/>
    <circle cx="170" cy="130" r="3" fill="#06b6d4"/>
    <path d="M 160 100 L 180 100"/>
    <circle cx="180" cy="100" r="2" fill="#06b6d4"/>
    
    <!-- Top-right circuits -->
    <path d="M 362 110 L 342 110 L 342 130"/>
    <circle cx="342" cy="130" r="3" fill="#a855f7"/>
    <path d="M 352 100 L 332 100"/>
    <circle cx="332" cy="100" r="2" fill="#a855f7"/>
    
    <!-- Bottom-left circuits -->
    <path d="M 150 402 L 170 402 L 170 382"/>
    <circle cx="170" cy="382" r="3" fill="#a855f7"/>
    <path d="M 160 412 L 180 412"/>
    <circle cx="180" cy="412" r="2" fill="#a855f7"/>
    
    <!-- Bottom-right circuits -->
    <path d="M 362 402 L 342 402 L 342 382"/>
    <circle cx="342" cy="382" r="3" fill="#06b6d4"/>
    <path d="M 352 412 L 332 412"/>
    <circle cx="332" cy="412" r="2" fill="#06b6d4"/>
  </g>
  
  <!-- Mining chip details -->
  <g opacity="0.5">
    <rect x="240" y="180" width="8" height="20" fill="#06b6d4" rx="2"/>
    <rect x="264" y="180" width="8" height="20" fill="#a855f7" rx="2"/>
    <rect x="240" y="312" width="8" height="20" fill="#a855f7" rx="2"/>
    <rect x="264" y="312" width="8" height="20" fill="#06b6d4" rx="2"/>
    
    <rect x="180" y="240" width="20" height="8" fill="#06b6d4" rx="2"/>
    <rect x="180" y="264" width="20" height="8" fill="#a855f7" rx="2"/>
    <rect x="312" y="240" width="20" height="8" fill="#a855f7" rx="2"/>
    <rect x="312" y="264" width="20" height="8" fill="#06b6d4" rx="2"/>
  </g>
</svg>
