<?xml version="1.0" encoding="UTF-8"?>
<svg id="Layer_2" data-name="Layer 2" xmlns="http://www.w3.org/2000/svg" viewBox="0 0 124.01 181.35">
  <defs>
    <style>
      .cls-1 {
        fill: #315fed;
      }
    </style>
  </defs>
  <g id="Layer_1-2" data-name="Layer 1">
    <path class="cls-1" d="M91.83,1.36c.87.82,1.4,3.31,2.07,4.49l-15.81,68.24c8.85.73,17.63,1.1,26.54,1.05,2.89-.02,5.36-1.12,7.95-1.13,8.43-.02,14.76,3.88,9.51,12.59l-78.97,92.03c-5.04,5.61-13.78,1.94-11.93-5.9l13.9-61.62c-2.45-2.42-34.64,0-41.31-1.25-4.34-.81-4.01-5.42-3.48-9.04C26.76,66.79,55.72,34.87,83.01,1.52c1.78-2.15,7.02-1.86,8.83-.16ZM107.09,86.1h-38.5c-2.27,0-3.59-6.17-3.43-8.36.97-13.22,8.1-30.79,10.48-44.59.19-1.1,1.16-3.39-.04-4.04L17.09,99.1h36.5c1.13,0,5.69,6.29,4.45,8.36l-10.45,47.64,59.5-69Z"/>
  </g>
</svg>