<?xml version="1.0" encoding="UTF-8"?>
<svg id="Layer_2" data-name="Layer 2" xmlns="http://www.w3.org/2000/svg" viewBox="0 0 167.01 180.42">
  <defs>
    <style>
      .cls-1 {
        fill: #315fed;
      }
    </style>
  </defs>
  <g id="Layer_1-2" data-name="Layer 1">
    <g>
      <path class="cls-1" d="M134.2,108.76c4.71,2.63,20.48,8.81,21.62,13.87-1.02,16.29,2.09,35.92.23,51.81-.29,2.44-.97,4.46-3.02,5.98l-149.98-.03-2.5-2.5-.56-86.52c.41-4.81.9-5.78,5.69-7.19,15.61,5.5,30.25,13.88,45.34,20.73.9-5.9-3.81-20.69,6.44-19.99,4.27.29,32.06,18.67,33.57,16.98l4.77-61.74c.88-1.73,1.78-2.86,3.76-3.24,3.13-.6,22.82-.6,25.96,0,2.71.52,3.98,3,4.47,5.53l4.22,66.29ZM12.04,168.92h132c-.03-13.76.3-27.55-.98-41.3-.5-2.18-19.44-8.63-20.82-13.41-1.25-21.78-2.57-43.67-4.78-65.31h-10.43s-4.01,58.5-4.01,58.5c-1.11,6.45-.68,12.06-9.23,10.29l-30.75-15.78c-2.14,7,2.37,18.42-8.26,17.84l-42.75-19.83v68.99Z"/>
      <path class="cls-1" d="M134.03,21.92c-6.26,3.12-10.76-6.19-16.98-1.48-1.7,1.29-7.48,10.1-9.59,2.56-3.28-11.73,17.01-17,24.56-10.08,4.4-16.25,25.72-17.24,33.06-2.55,8.18,16.37-11.48,31.46-26,22-3.24-2.11-7.1-6.38-5.06-10.45ZM143.33,11.21c-1.26,1.03-2.91,5.79-3.09,7.5-.97,9.2,18.7,10.8,16.76-2.22-.91-6.12-9.29-8.87-13.67-5.28Z"/>
    </g>
  </g>
</svg>