<?xml version="1.0" encoding="UTF-8"?>
<svg id="Layer_2" data-name="Layer 2" xmlns="http://www.w3.org/2000/svg" viewBox="0 0 182.67 183.64">
  <defs>
    <style>
      .cls-1 {
        fill: #315fed;
      }
    </style>
  </defs>
  <g id="Layer_1-2" data-name="Layer 1">
    <g>
      <path class="cls-1" d="M112.55,18.13c.95,1.28,13.26,3.99,15.3,6.89,3.15.19,7.61-9.34,17.55-6.23,1.39.44,19.09,17.41,20,19,1.39,2.42,1.35,6.15.73,8.85-.77,3.36-6.78,8.48-6.63,10.02.08.83,5.55,14.81,6.08,15.44,2.26,2.69,13.03-1.35,15.99,7.51,1.35,4.04,1.36,21.45.54,25.99-2.15,11.88-14.79,7.2-17.53,9.98-1.58,1.61-3.74,13.31-7.23,15.74,5.4,3.01,9.83,9.44,7.78,16.32-.37,1.25-16.53,17.56-18.28,18.71-10.36,6.77-16.55-6.91-20.76-5.87-1.2.3-3.25,2.33-5.05,3.06-1.51.6-8.26,2.58-8.53,2.98-2,3.01.66,13.22-6.43,16.07-3.03,1.22-25.38,1.36-29.03.55-8.38-1.87-5.45-15.14-7.94-17.56-.41-.4-8.9-2.97-10.77-3.72-1.19-.48-2.98-2.2-3.51-2.21-3-.02-7.96,10.35-17.56,7.26-1.76-.57-18.08-16.5-19.4-18.59-4.67-7.43,1.14-13.43,6.22-18.43-2.18-1.72-6.18-14.94-6.89-15.39-2.65-1.66-13.22,1.85-16.11-5.39-1.14-2.85-1.42-25.63-.74-29.22,1.53-8.06,13.83-5.95,15.79-7.7.35-.31,1.77-7.34,2.41-9.09s3.8-6.38,3.68-7.09c-.19-1.1-6.05-6.14-6.69-8.35-2.33-8.05,2.86-12.32,7.76-17.81,9.21-10.33,16.6-17.07,28.51-4.74,3.65-3.2,13.94-4.44,16.93-6.62,2.7-1.97-2.81-16.76,12.04-18.17,5.1-.49,22.69-.62,26.47,1.63,6.57,3.91,2.74,12.79,5.28,16.21ZM99.34,12.34h-18c1.45,18.35-3.62,14.54-15.98,19.52-4.14,1.67-9.67,6.42-13.55,6.56-6.47.23-9.15-8.23-13.75-6.94-.69.19-9.87,9.08-10.27,9.89-1.79,3.59,9.47,10.19,8.38,15.23-.27,1.23-3.39,5.49-4.3,7.78-1.39,3.51-4.34,14.98-5.48,16.52-2.29,3.08-11.31,3.51-15.06,3.44v17.44c.09.65,11.13,1.37,13.05,2.02,4.3,1.46,3.72,6.31,5.17,9.83,1.49,3.59,7.89,14.79,7.86,17.24-.06,4.31-6.44,8.94-9.06,11.98,2.64,2,10.25,11.95,13.33,11.34s7.26-8.43,12.93-7.65c2.51.35,10.09,5.22,13.45,6.58,3.02,1.23,7.97,1.46,10.24,2.76,3.41,1.96,3.59,11.72,4.03,15.47h18c.05-4.51-.34-12.99,4.07-15.43,7.35-.26,20.58-10.49,26.67-7.82,2.43,1.07,7.8,7.64,10.61,7.1,1.87-.36,9.23-9.73,11.63-11.35-2.79-3.53-9.65-8.98-8.82-13.75.51-2.94,4.52-8.07,5.85-11.24,1.24-2.94,3.81-12.87,5-14,2.21-2.13,11.62-2.41,15-2.5v-17.44c-.18-1.25-13.55.33-15.76-5.32-1.09-2.78-1.17-7.09-2.47-10.53-1.16-3.04-6.3-11.22-6.37-13.22-.15-4.03,8.76-12.1,8.14-13.51-1.94-1.34-11.1-11.81-12.04-11.82-1.72,0-7.72,7.96-13.03,7.9-2.5-.03-9.08-5.18-12.5-6.56-3.7-1.49-9.73-2.12-12.37-3.63-5.14-2.93-2.69-11.23-4.61-15.89Z"/>
      <path class="cls-1" d="M136.67,91.36c0,25.1-20.34,45.44-45.44,45.44s-45.44-20.34-45.44-45.44,20.34-45.44,45.44-45.44,45.44,20.34,45.44,45.44ZM110.06,71.52c-3.79,1.13-22.16,25.81-24.22,25.81-3.58-2-8.81-11.56-12.06-12.01-4.41-.62-7.86,3.84-5.93,8.02.46.99,14.51,15.04,15.5,15.5,1.78.83,3.19.83,4.97,0s18.99-19.48,21.53-22.47c2.18-2.56,6.58-7.36,6.56-10.53-.03-3.66-3-5.31-6.36-4.31Z"/>
    </g>
  </g>
</svg>