<?xml version="1.0" encoding="UTF-8"?>
<svg id="Layer_2" data-name="Layer 2" xmlns="http://www.w3.org/2000/svg" viewBox="0 0 149.19 176.12">
  <defs>
    <style>
      .cls-1 {
        fill: #315fed;
      }
    </style>
  </defs>
  <g id="Layer_1-2" data-name="Layer 1">
    <g>
      <path class="cls-1" d="M71.97.53c7.65-2.33,8.03,3.5,11.81,6.78,10.98,9.54,26.89,17.23,41.26,19.74,5.3.92,14.78.39,18.52,1.48,2.27.66,4.45,3.92,4.76,6.24,1.5,11.26.75,37.11-.01,49.09-2.42,38.01-24.44,67.98-57.37,85.63-5.02,2.69-14.32,7.83-19.7,6.36-18.12-4.95-45.59-28.53-55.79-44.21C-4.29,101.33.72,68.2.22,33.78c-.06-1.18.3-2.08.98-3.02,2.15-3.02,16.27-2.89,21.28-3.72,11.74-1.95,25.3-7.15,35.12-13.88,3.12-2.14,12.95-12.19,14.37-12.62ZM135.27,40.32c-21.81.19-45.16-9.8-60.51-24.98-16.28,15.75-38.9,24.55-61.5,24.98-1.19,21.49-2.75,42.13,3.51,63,8.49,28.31,30.59,47.98,56.99,59.63,22.06-8.43,45.06-27.16,54.36-49.26,9.86-23.43,6.69-48.57,7.15-73.36Z"/>
      <path class="cls-1" d="M72.03,63.54c13.03-1.91,22.79,13.06,15.46,24.5-1.74,2.72-5.47,4.16-6.03,5.97-2.67,8.75,6.17,23.5-10.66,20.28-6.74-1.29-1.96-15.26-3.69-20.3-.45-1.33-4.77-3.44-6.29-5.71-6.49-9.69-.07-23.08,11.21-24.73Z"/>
    </g>
  </g>
</svg>